<?xml version="1.0" encoding="utf-8"?>
<!-- Generator: Adobe Illustrator 19.0.0, SVG Export Plug-In . SVG Version: 6.00 Build 0)  -->
<svg version="1.1" xmlns="http://www.w3.org/2000/svg" xmlns:xlink="http://www.w3.org/1999/xlink" x="0px" y="0px"
	 viewBox="0 0 500 500" style="enable-background:new 0 0 500 500;" xml:space="preserve">
<style type="text/css">
	.st0{fill:#006837;}
	.st1{fill:#FFFFFF;}
</style>
<g id="图层_2">
	<rect id="XMLID_10_" class="st0" width="500" height="500"/>
</g>
<g id="图层_1">
	<path id="XMLID_16_" class="st1" d="M372.7,237.7c25,0,45-19.8,45-44.4s-20-44.4-45-44.4c-25,0-45.1,19.8-45.1,44.4
		S347.7,237.7,372.7,237.7z M252.3,237.7c25,0,45-19.8,45-44.4s-20-44.4-45-44.4s-45.1,19.8-45.1,44.4S227.3,237.7,252.3,237.7z
		 M252.3,267.3c-35.1,0-105.3,17.3-105.3,51.8v37h210.7v-37C357.6,284.6,287.3,267.3,252.3,267.3z M372.7,267.3
		c-4.4,0-9.3,0.3-14.6,0.7c17.5,12.4,29.6,29.1,29.6,51v37H478v-37C478,284.6,407.7,267.3,372.7,267.3z"/>
	<path id="XMLID_6_" class="st1" d="M177.5,193.4c0-24.5-20.2-44.4-45.1-44.4s-45,19.8-45,44.4s20,44.4,45,44.4
		S177.5,217.9,177.5,193.4z M297.9,193.4c0-24.5-20.2-44.4-45.1-44.4s-45,19.8-45,44.4s20,44.4,45,44.4S297.9,217.9,297.9,193.4z
		 M147.4,319v37h210.7v-37c0-34.5-70.3-51.8-105.3-51.8S147.4,284.6,147.4,319z M27,319v37h90.3v-37c0-21.9,12.2-38.6,29.6-51
		c-5.3-0.4-10.2-0.7-14.6-0.7C97.3,267.3,27,284.6,27,319z"/>
	<rect id="XMLID_14_" x="353.7" y="464" class="st1" width="89.3" height="36"/>
</g>
</svg>
