<?xml version="1.0" standalone="no"?>
<!DOCTYPE svg PUBLIC "-//W3C//DTD SVG 20010904//EN"
 "http://www.w3.org/TR/2001/REC-SVG-20010904/DTD/svg10.dtd">
<svg version="1.0" xmlns="http://www.w3.org/2000/svg"
 width="500.000000pt" height="500.000000pt" viewBox="0 0 500.000000 500.000000"
 preserveAspectRatio="xMidYMid meet">
<metadata>
Created by potrace 1.11, written by Peter Selinger 2001-2013
</metadata>
<g transform="translate(0.000000,500.000000) scale(0.100000,-0.100000)"
fill="#000000" stroke="none">
<path d="M0 2500 l0 -2500 1765 0 1765 0 0 180 0 180 450 0 450 0 0 -180 0
-180 285 0 285 0 0 2500 0 2500 -2500 0 -2500 0 0 -2500z m1429 999 c224 -51
381 -281 341 -501 -46 -261 -302 -428 -555 -363 -231 61 -376 277 -336 502 17
95 50 163 113 229 61 64 115 99 196 125 63 20 173 24 241 8z m1230 -8 c83 -26
137 -60 198 -123 108 -115 147 -262 108 -411 -21 -80 -46 -125 -104 -189 -110
-120 -289 -174 -444 -133 -291 76 -429 375 -295 639 27 53 112 142 166 173
107 63 255 80 371 44z m1200 0 c84 -26 137 -60 199 -125 233 -246 111 -643
-223 -731 -253 -65 -509 102 -555 363 -39 218 117 449 337 501 67 16 177 12
242 -8z m-2421 -1167 l31 -6 -47 -37 c-107 -85 -186 -195 -222 -310 -18 -55
-20 -91 -20 -297 l0 -234 -455 0 -455 0 0 213 c0 203 1 214 24 263 62 133 211
233 473 318 118 38 272 72 386 85 89 10 244 13 285 5z m1377 -23 c301 -55 542
-157 665 -280 92 -93 95 -101 98 -358 l3 -223 -1056 0 -1056 0 3 223 c3 257 6
265 98 358 94 94 241 169 455 231 93 27 267 62 360 72 85 9 323 -4 430 -23z
m1070 19 c131 -15 274 -46 398 -86 262 -85 411 -185 473 -318 23 -49 24 -60
24 -263 l0 -213 -455 0 -455 0 0 233 c0 184 -3 245 -16 288 -33 113 -120 236
-226 320 -44 34 -46 38 -26 42 45 8 195 7 283 -3z"/>
</g>
</svg>
